<?xml version="1.0" encoding="utf-8"?>
<!-- Generator: Adobe Illustrator 21.0.2, SVG Export Plug-In . SVG Version: 6.00 Build 0)  -->
<svg version="1.1" id="Layer_1" xmlns="http://www.w3.org/2000/svg" xmlns:xlink="http://www.w3.org/1999/xlink" x="0px" y="0px"
	 viewBox="0 0 18 18" style="enable-background:new 0 0 18 18;" xml:space="preserve">
<style type="text/css">
	.st0{fill:#FFFFFF;}
</style>
<path class="st0" d="M17.5,7.5H9v3.4h4.9c-0.2,1.1-0.8,2.1-1.8,2.7l0,0c-0.8,0.5-1.8,0.9-3.1,0.9c-2.3,0-4.3-1.6-5.1-3.7l0,0
	C3.8,10.2,3.7,9.6,3.7,9c0-0.6,0.1-1.2,0.3-1.7c0.7-2.1,2.7-3.7,5-3.7c1.3,0,2.5,0.5,3.5,1.3L15,2.3C13.5,0.9,11.4,0,9,0
	C5.5,0,2.4,2,1,5C0.3,6.2,0,7.5,0,9c0,1.5,0.3,2.8,1,4l0,0c1.5,2.9,4.5,5,8,5c2.4,0,4.5-0.8,6-2.2l0,0c1.7-1.6,2.7-3.9,2.7-6.6
	C17.6,8.6,17.6,8,17.5,7.5z"/>
</svg>
